<svg xmlns="http://www.w3.org/2000/svg" xmlns:xlink="http://www.w3.org/1999/xlink" width="23" height="23" viewBox="0 0 23 23">
  <defs>
    <clipPath id="clip-gift">
      <rect width="23" height="23"/>
    </clipPath>
  </defs>
  <g id="gift" clip-path="url(#clip-gift)">
    <rect width="23" height="23" fill="rgba(255,255,255,0)"/>
    <g id="noun_Health_Care_432290" data-name="noun_Health Care_432290" transform="translate(-4.439 -5.149)">
      <path id="Path_22" data-name="Path 22" d="M35.548,9.474a3.473,3.473,0,0,0-3.536-3.536,3.851,3.851,0,0,0-3.241,1.907.065.065,0,0,1-.119,0,3.851,3.851,0,0,0-3.241-1.907,3.473,3.473,0,0,0-3.536,3.536c0,2.47,1.7,5.382,6.743,8.893a.177.177,0,0,0,.187,0C33.843,14.856,35.548,11.944,35.548,9.474Z" transform="translate(-12.773)" fill="#fff"/>
      <path id="Path_23" data-name="Path 23" d="M63.374,19.7c-1.618-.207-1.37,1.34-1.67,3.354-.187,1.252-.385,2.363-.509,3.024h0c-.981-.3-2.076,1.156-3.125,2.256-1.185,1.242-4.44,2.245-4.44,4.534V37.65a.114.114,0,0,0,.114.114h4.551a.114.114,0,0,0,.114-.114V35.243c0-2.8,4.606-3.908,5.023-6.865A33.4,33.4,0,0,0,63.374,19.7Z" transform="translate(-36.808 -10.405)" fill="#fff"/>
      <path id="Path_24" data-name="Path 24" d="M10.617,28.339c-1.05-1.1-2.144-2.552-3.126-2.256h0c-.123-.661-.322-1.772-.509-3.024-.3-2.015-.053-3.561-1.671-3.354a33.393,33.393,0,0,0-.056,8.675c.417,2.958,5.023,4.062,5.023,6.865v2.407a.114.114,0,0,0,.114.114h4.551a.114.114,0,0,0,.114-.114V32.873C15.057,30.584,11.8,29.581,10.617,28.339Z" transform="translate(0 -10.406)" fill="#fff"/>
    </g>
  </g>
</svg>
