<svg xmlns="http://www.w3.org/2000/svg" xmlns:xlink="http://www.w3.org/1999/xlink" width="27" height="24" viewBox="0 0 27 24">
  <defs>
    <clipPath id="clip-heal">
      <rect width="27" height="24"/>
    </clipPath>
  </defs>
  <g id="heal" clip-path="url(#clip-heal)">
    <rect width="27" height="24" fill="rgba(255,255,255,0)"/>
    <g id="noun_Health_2484037" transform="translate(-1.946 -8.066)">
      <path id="Path_14" data-name="Path 14" d="M21.647,9.445a10.453,10.453,0,0,0-6.2,3.224,10.455,10.455,0,0,0-6.2-3.224c-3.72-.372-7.564,3.72-5.518,9.486S15.447,30.71,15.447,30.71s9.671-6.014,11.717-11.78S25.366,9.073,21.647,9.445ZM20.26,20.85a.641.641,0,0,1-.642.641H16.873v2.746a.642.642,0,0,1-.641.641H14.662a.642.642,0,0,1-.642-.641V21.492H11.275a.641.641,0,0,1-.641-.641V19.282a.641.641,0,0,1,.641-.642H14.02V15.894a.642.642,0,0,1,.642-.642h1.569a.642.642,0,0,1,.641.642V18.64h2.745a.641.641,0,0,1,.642.642V20.85Z" transform="translate(0 0)" fill="#fff"/>
    </g>
  </g>
</svg>
