<svg xmlns="http://www.w3.org/2000/svg" xmlns:xlink="http://www.w3.org/1999/xlink" width="22" height="17" viewBox="0 0 22 17">
  <defs>
    <clipPath id="clip-batch_1">
      <rect width="22" height="17"/>
    </clipPath>
  </defs>
  <g id="batch_1" clip-path="url(#clip-batch_1)">
    <rect width="22" height="17" fill="rgba(255,255,255,0)"/>
    <path id="crown" d="M19.27,47.994a.561.561,0,0,1-.015.167L18.018,53.11a.563.563,0,0,1-.543.426l-7.424.037H2.625a.562.562,0,0,1-.546-.427L.842,48.179a.562.562,0,0,1-.015-.172,1.182,1.182,0,1,1,1.1-.215L3.48,49.353a2.1,2.1,0,0,0,3.169-.214l2.546-3.373a1.182,1.182,0,1,1,1.688-.02l0,0,2.527,3.383a2.11,2.11,0,0,0,1.682.843,2.086,2.086,0,0,0,1.485-.615L18.138,47.8a1.181,1.181,0,1,1,1.132.194ZM17.9,55.336a.562.562,0,0,0-.562-.562H2.787a.562.562,0,0,0-.562.562v1.35a.562.562,0,0,0,.562.562H17.335a.562.562,0,0,0,.562-.562Z" transform="translate(0.97 -41.999)" fill="#ff4f3d"/>
  </g>
</svg>
