<svg id="add_2" xmlns="http://www.w3.org/2000/svg" width="23.322" height="23.321" viewBox="0 0 23.322 23.321">
  <path id="Path_2163" data-name="Path 2163" d="M11.661,23.321A11.661,11.661,0,1,1,23.321,11.661,11.674,11.674,0,0,1,11.661,23.321Zm0-21.168a9.507,9.507,0,1,0,9.507,9.507A9.518,9.518,0,0,0,11.661,2.154Z" fill="#2c2f76"/>
  <path id="Path_2164" data-name="Path 2164" d="M32.923,25.983H28.375V21.435a1.2,1.2,0,0,0-2.393,0v4.548H21.434a1.2,1.2,0,0,0,0,2.393h4.548v4.548a1.2,1.2,0,0,0,2.393,0V28.376h4.548a1.2,1.2,0,0,0,0-2.393Z" transform="translate(-15.518 -15.519)" fill="#2c2f76"/>
</svg>
