<svg id="Chemist" xmlns="http://www.w3.org/2000/svg" width="42.457" height="60.622" viewBox="0 0 42.457 60.622">
  <path id="Path_2135" data-name="Path 2135" d="M60.907,199.6l-2.555-14.476a3.885,3.885,0,0,0-2.248-2.875L49.252,179.2l-3.814-5.085h-5.97L35.655,179.2,28.8,182.248a3.885,3.885,0,0,0-2.248,2.875L24,199.6l.971,12.626H60.907Z" transform="translate(-24 -151.602)" fill="#e0edff"/>
  <path id="Path_2136" data-name="Path 2136" d="M168,312h1.943v21.367H168Z" transform="translate(-150.518 -272.745)" fill="#c8dbf7"/>
  <path id="Path_2137" data-name="Path 2137" d="M133.6,179.2l-6.8,17.482L120,179.2l2.081-2.775,1.732-2.309h5.971l1.732,2.309Z" transform="translate(-108.345 -151.605)" fill="#548aff"/>
  <path id="Path_2138" data-name="Path 2138" d="M122.448,202.212l4.351-4.351-4.717-4.717L120,195.918Z" transform="translate(-108.345 -168.319)" fill="#7dafff"/>
  <path id="Path_2148" data-name="Path 2148" d="M80,344h1.942v17.482H80Z" transform="translate(-73.201 -300.86)" fill="#c8dbf7"/>
  <path id="Path_2149" data-name="Path 2149" d="M180.351,202.212,176,197.86l4.717-4.717,2.081,2.775Z" transform="translate(-157.546 -168.319)" fill="#7dafff"/>
  <path id="Path_2133" data-name="Path 2133" d="M338.175,231.771V219.914a2.023,2.023,0,0,0-1.272-1.879,2.023,2.023,0,0,1-1.272-1.879V216h-5.087v.156a2.023,2.023,0,0,1-1.272,1.879A2.023,2.023,0,0,0,328,219.914v11.857a1.526,1.526,0,0,0,1.526,1.526h7.122A1.526,1.526,0,0,0,338.175,231.771Z" transform="translate(-295.718 -172.676)" fill="#b1712c"/>
  <path id="Path_2134" data-name="Path 2134" d="M368,336h7.631v4.579H368Z" transform="translate(-333.174 -285.044)" fill="#91591c"/>
  <path id="Path_2139" data-name="Path 2139" d="M248,320h8.649v3.561H248Z" transform="translate(-220.805 -270.062)" fill="#ffc431"/>
  <path id="Path_2140" data-name="Path 2140" d="M264,290.035,265.017,288H269.6l1.018,2.035Z" transform="translate(-235.788 -240.097)" fill="#ffb401"/>
  <path id="Path_2141" data-name="Path 2141" d="M264,376h6.614v7.122H264Z" transform="translate(-235.788 -322.501)" fill="#ffc431"/>
  <g id="Group_101" data-name="Group 101" transform="translate(29.23 49.938)">
    <path id="Path_2142" data-name="Path 2142" d="M280,352h1.017v1.526H280Z" transform="translate(-280 -349.965)" fill="#ffb401"/>
    <path id="Path_2143" data-name="Path 2143" d="M312,344h1.017v2.035H312Z" transform="translate(-309.965 -342.474)" fill="#ffb401"/>
    <path id="Path_2144" data-name="Path 2144" d="M344,320h1.017v3.561H344Z" transform="translate(-339.93 -320)" fill="#ffb401"/>
  </g>
  <path id="Path_2145" data-name="Path 2145" d="M264,376h6.614v4.579H264Z" transform="translate(-235.788 -322.501)" fill="#ffa100"/>
  <path id="Path_2146" data-name="Path 2146" d="M368,152h5.087v4.07H368Z" transform="translate(-333.174 -112.745)" fill="#ffc431"/>
  <path id="Path_2147" data-name="Path 2147" d="M392,176h3.561v1.017H392Z" transform="translate(-355.648 -135.219)" fill="#ffb401"/>
  <path id="Path_2158" data-name="Path 2158" d="M218.435,200v6.957l-5.218,5.218L208,206.957V200Z" transform="translate(-194.643 -181.484)" fill="#fdc8a2"/>
  <path id="Path_2159" data-name="Path 2159" d="M218.435,208v3.945q-.245.241-.51.46a7.426,7.426,0,0,1-9.926-.46V208Z" transform="translate(-194.643 -188.615)" fill="#fdb683"/>
  <path id="Path_2157" data-name="Path 2157" d="M191.827,60.463a7.425,7.425,0,0,1-7.281-5.969A28.094,28.094,0,0,1,184,48.986V45.418a7.827,7.827,0,0,1,15.653,0v3.568a28.093,28.093,0,0,1-.545,5.508,7.425,7.425,0,0,1-7.281,5.97Z" transform="translate(-173.252 -36.729)" fill="#fdc8a2"/>
  <circle id="Ellipse_45" data-name="Ellipse 45" cx="1.362" cy="1.362" r="1.362" transform="translate(13.442 9.406)" fill="#91563a"/>
  <circle id="Ellipse_46" data-name="Ellipse 46" cx="1.362" cy="1.362" r="1.362" transform="translate(21.616 9.406)" fill="#91563a"/>
  <g id="Group_102" data-name="Group 102" transform="translate(7.269 9.82)">
    <path id="Path_2069" data-name="Path 2069" d="M241.619,174.387H240v-1.739h1.619a7.065,7.065,0,0,0,2.427-.409l.6,1.63A8.817,8.817,0,0,1,241.619,174.387Z" transform="translate(-230.434 -166.561)" fill="#fdb683"/>
    <path id="Path_2070" data-name="Path 2070" d="M155.478,120h-.87a2.609,2.609,0,1,0,0,5.218h1.008q-.138-1.386-.138-2.781Z" transform="translate(-152 -120)" fill="#fdb683"/>
    <path id="Path_2071" data-name="Path 2071" d="M327.735,120h-.87v2.437q0,1.394-.138,2.781h1.008a2.609,2.609,0,1,0,0-5.218Z" transform="translate(-307.734 -120)" fill="#fdb683"/>
  </g>
  <path id="Path_2161" data-name="Path 2161" d="M168,24h3.658a4.7,4.7,0,0,1,4.7,4.7v4.7a4.181,4.181,0,0,0-4.181-4.181H168Z" transform="translate(-149.96 -24)" fill="#91591c"/>
  <path id="Path_2162" data-name="Path 2162" d="M176.361,24H172.7a4.7,4.7,0,0,0-4.7,4.7v4.7a4.181,4.181,0,0,1,4.181-4.181h4.181Z" transform="translate(-157.252 -24)" fill="#b1712c"/>
  <path id="Path_2160" data-name="Path 2160" d="M120,29.226h1.657a3.568,3.568,0,0,1,2.523,1.045,3.568,3.568,0,0,0,2.523,1.045h.09a3.658,3.658,0,1,0,0-7.316h-2.613A4.181,4.181,0,0,0,120,28.181Z" transform="translate(-108.231 -24)" fill="#b1712c"/>
</svg>
