<svg xmlns="http://www.w3.org/2000/svg" width="37" height="37" viewBox="0 0 37 37">
  <g id="linkedin" transform="translate(-0.387)">
    <rect id="Rectangle_362" data-name="Rectangle 362" width="37" height="37" transform="translate(0.387)" fill="rgba(102,102,102,0.44)"/>
    <g id="icon-social-linkedin" transform="translate(9.668 9.73)">
      <path id="LinkedIn-2" data-name="LinkedIn" d="M30.746,22.572v6.741H26.855V22.989c0-1.6-.556-2.641-2.015-2.641a2.149,2.149,0,0,0-2.015,1.459,4.1,4.1,0,0,0-.139.973v6.532H18.793s.069-10.7,0-11.814h3.892v1.737h0v-.069a3.893,3.893,0,0,1,3.544-1.946C28.8,17.221,30.746,18.888,30.746,22.572ZM14.624,11.8A2.072,2.072,0,0,0,12.4,13.815a2.011,2.011,0,0,0,2.154,2.015h0a2.032,2.032,0,0,0,2.224-2.015A1.936,1.936,0,0,0,14.624,11.8ZM12.678,29.313H16.57V17.5H12.678V29.313Z" transform="translate(-12.4 -11.8)" fill="#fff"/>
    </g>
  </g>
</svg>
