<svg xmlns="http://www.w3.org/2000/svg" width="38.693" height="33.839" viewBox="0 0 38.693 33.839">
  <g id="menu" transform="translate(-11.301 -16.1)">
    <path id="Path_6" data-name="Path 6" d="M48.042,49.9H13.2A1.9,1.9,0,0,1,11.3,48h0a1.9,1.9,0,0,1,1.9-1.9h34.89a1.9,1.9,0,0,1,1.9,1.9h0A1.913,1.913,0,0,1,48.042,49.9Z" transform="translate(0 -14.983)" fill="#2c2f76"/>
    <path id="Path_7" data-name="Path 7" d="M48.042,19.9H13.2A1.9,1.9,0,0,1,11.3,18h0a1.9,1.9,0,0,1,1.9-1.9h34.89a1.9,1.9,0,0,1,1.9,1.9h0A1.913,1.913,0,0,1,48.042,19.9Z" fill="#2c2f76"/>
    <path id="Path_8" data-name="Path 8" d="M48.042,79.9H13.2A1.9,1.9,0,0,1,11.3,78h0a1.9,1.9,0,0,1,1.9-1.9h34.89a1.9,1.9,0,0,1,1.9,1.9h0A1.913,1.913,0,0,1,48.042,79.9Z" transform="translate(0 -29.965)" fill="#2c2f76"/>
  </g>
</svg>
