<svg xmlns="http://www.w3.org/2000/svg" width="37" height="37" viewBox="0 0 37 37">
  <g id="twitter" transform="translate(0.227)">
    <rect id="Rectangle_363" data-name="Rectangle 363" width="37" height="37" transform="translate(-0.228)" fill="rgba(102,102,102,0.44)"/>
    <g id="g10" transform="translate(8.515 9.498)">
      <g id="g12" transform="translate(0 0)">
        <g id="g14">
          <rect id="Rectangle_360" data-name="Rectangle 360" width="2.753" height="2.235" transform="translate(8.938 7.272)" fill="#fff"/>
          <g id="g16">
            <path id="path22" d="M32.773-134.891a8.3,8.3,0,0,1-2.434.668,4.275,4.275,0,0,0,1.865-2.344,8.381,8.381,0,0,1-2.693,1.028,4.208,4.208,0,0,0-3.093-1.337,4.236,4.236,0,0,0-4.24,4.24,4.426,4.426,0,0,0,.11.968A12.022,12.022,0,0,1,13.56-136.1a4.18,4.18,0,0,0-.569,2.125,4.259,4.259,0,0,0,1.885,3.531,4.134,4.134,0,0,1-1.915-.529v.05a4.228,4.228,0,0,0,3.4,4.15,4.137,4.137,0,0,1-1.117.15,4.244,4.244,0,0,1-.8-.08,4.234,4.234,0,0,0,3.96,2.943,8.5,8.5,0,0,1-5.267,1.816,8.411,8.411,0,0,1-1.008-.06,12.032,12.032,0,0,0,6.494,1.905,11.969,11.969,0,0,0,12.051-12.051c0-.18,0-.369-.01-.549a8.807,8.807,0,0,0,2.1-2.195" transform="translate(-12.133 136.877)" fill="#fff"/>
          </g>
        </g>
      </g>
    </g>
  </g>
</svg>
